<svg xmlns="http://www.w3.org/2000/svg" xmlns:svg="http://www.w3.org/2000/svg" xmlns:xlink="http://www.w3.org/1999/xlink" version="1.0" height="600pt" width="1230pt" viewBox="225 7 1238 606" ><defs><style type="text/css">
            @font-face {
                font-family: 'lt_regular';
                src: url('https://app.creately.com/diagram/assets/fonts/lato/lt-regular-webfont.woff2') format('woff2'),
                    url('https://app.creately.com/diagram/assets/fonts/lato/lt-regular-webfont.woff') format('woff');
                font-weight: normal;
                font-style: normal;
            }
            @font-face {
                font-family: 'noto_regular';
                src: url('https://app.creately.com/diagram/assets/fonts/noto/noto-regular.woff') format('woff'),
                     url('https://app.creately.com/diagram/assets/fonts/noto/noto-regular.woff2') format('woff2');
                font-weight: normal;
                font-style: normal;
            }
        p {
            margin: 0;
        }
        </style></defs><defs><style>
            span{ display: inline-block; }
        </style></defs><g id="nGZEpsIdMPy"><g transform="translate(359.9999999999998 110)"><rect x="0" y="0" width="99.99999999999999" height="49.99999999999999" fill="rgb(44,184,185)" stroke="#2cb8b9" stroke-width="2" stroke-linecap="round" stroke-linejoin="round" stroke-dasharray="0 0"/></g><g transform="translate(379.9999999999998, 125) rotate(0, 30, 10)" width="60" height="20"><text text-decoration="none" x="0" fill="#fffcfc" font-weight="bold" font-size="11pt" font-family="lt_regular"  y="16">customer</text><text text-decoration="none" x="60" fill="#4b4b4b" font-size="10pt" font-family="noto_regular"  y="16"></text></g></g><g id="3wSbAqKaafW"><g transform="translate(610 100)"><path d="M 120,35 L 60,70 L 0,35 L 60,0 L 120,35 L 120,35 Z" fill="rgb(243,157,32)" stroke="#f39d20" stroke-width="2" stroke-linecap="round" stroke-linejoin="round" stroke-dasharray="0 0"/></g><g transform="translate(655.5, 125) rotate(0, 14.5, 10)" width="29" height="20"><text text-decoration="none" x="0.5" fill="#fffcfc" font-weight="bold" font-size="11pt" font-family="lt_regular"  y="16">uses</text><text text-decoration="none" x="28.5" fill="#4b4b4b" font-size="10pt" font-family="noto_regular"  y="16"></text></g></g><g id="4KcGsmXGouT"><g transform="translate(879.9999999999998 109.99999999999997)"><rect x="0" y="0" width="100" height="50" fill="rgb(44,184,185)" stroke="#2cb8b9" stroke-width="2" stroke-linecap="round" stroke-linejoin="round" stroke-dasharray="0 0"/></g><g transform="translate(914.9999999999998, 124.99999999999997) rotate(0, 15, 10)" width="30" height="20"><text text-decoration="none" x="0" fill="#fffcfc" font-weight="bold" font-size="11pt" font-family="lt_regular"  y="16">prop</text><text text-decoration="none" x="30" fill="#4b4b4b" font-size="10pt" font-family="noto_regular"  y="16"></text></g></g><g id="jfQscP3H0ML"><g transform="translate(370.00000000000006 19.999999999999993)"><ellipse cx="50" cy="25" rx="50" ry="25" fill="rgb(140,202,204)" stroke="#8ccacc" stroke-width="2" stroke-linecap="round" stroke-linejoin="round" stroke-dasharray="0 0"/></g><g transform="translate(392.50000000000006, 35) rotate(0, 27.5, 10)" width="55" height="20"><text text-decoration="none" x="0.5" fill="#fffcfc" font-weight="bold" font-size="11pt" font-family="lt_regular"  y="16">surname</text><text text-decoration="none" x="54.5" fill="#4b4b4b" font-size="10pt" font-family="noto_regular"  y="16"></text></g></g><g id="NmDjazLukBW"><g transform="translate(480 70)"><ellipse cx="50" cy="25" rx="50" ry="25" fill="rgb(140,202,204)" stroke="#8ccacc" stroke-width="2" stroke-linecap="round" stroke-linejoin="round" stroke-dasharray="0 0"/></g><g transform="translate(512.5, 85) rotate(0, 17.5, 10)" width="35" height="20"><text text-decoration="none" x="0" fill="#fffcfc" font-weight="bold" font-size="11pt" font-family="lt_regular"  y="16">name</text><text text-decoration="none" x="35" fill="#4b4b4b" font-size="10pt" font-family="noto_regular"  y="16"></text></g></g><g id="khCy91cBZyX"><g transform="translate(450 190)"><ellipse cx="50" cy="25" rx="50" ry="25" fill="rgb(140,202,204)" stroke="#8ccacc" stroke-width="2" stroke-linecap="round" stroke-linejoin="round" stroke-dasharray="0 0"/></g><g transform="translate(481.5, 205) rotate(0, 18.5, 10)" width="37" height="20"><text text-decoration="none" x="0" fill="#fffcfc" font-weight="bold" font-size="11pt" font-family="lt_regular"  y="16">emaiil</text><text text-decoration="none" x="39" fill="#4b4b4b" font-size="10pt" font-family="noto_regular"  y="16"></text></g></g><g id="d8U7c4JNCOW"><g transform="translate(230 120)"><ellipse cx="50" cy="25" rx="50" ry="25" fill="rgb(140,202,204)" stroke="#8ccacc" stroke-width="2" stroke-linecap="round" stroke-linejoin="round" stroke-dasharray="0 0"/></g><g transform="translate(255.5, 135) rotate(0, 24.5, 10)" width="49" height="20"><text text-decoration="none" x="0.5" fill="#fffcfc" font-weight="bold" font-size="11pt" font-family="lt_regular"  y="16">address</text><text text-decoration="none" x="48.5" fill="#4b4b4b" font-size="10pt" font-family="noto_regular"  y="16"></text></g></g><g id="7uZnFnyhBlj"><g transform="translate(260 200)"><ellipse cx="50" cy="25" rx="50" ry="25" fill="rgb(140,202,204)" stroke="#8ccacc" stroke-width="2" stroke-linecap="round" stroke-linejoin="round" stroke-dasharray="0 0"/></g><g transform="translate(295.5, 215) rotate(0, 14.5, 10)" width="29" height="20"><text text-decoration="none" x="0.5" fill="#fffcfc" font-weight="bold" font-size="11pt" font-family="lt_regular"  y="16">num</text><text text-decoration="none" x="28.5" fill="#4b4b4b" font-size="10pt" font-family="noto_regular"  y="16"></text></g></g><g id="vye0O41RYmG"><g transform="translate(260 40)"><ellipse cx="50" cy="25" rx="50" ry="25" fill="rgb(140,202,204)" stroke="#8ccacc" stroke-width="2" stroke-linecap="round" stroke-linejoin="round" stroke-dasharray="0 0"/></g><g transform="translate(304, 55) rotate(0, 6, 10)" width="12" height="20"><text text-decoration="underline" x="0" fill="#fffcfc" font-weight="bold" font-size="11pt" font-family="lt_regular"  y="16">id</text><text text-decoration="none" x="12" fill="#4b4b4b" font-size="10pt" font-family="noto_regular"  y="16"></text></g></g><g id="ECQUyGAvju1"><g transform="translate(800 170)"><ellipse cx="50" cy="25" rx="50" ry="25" fill="rgb(140,202,204)" stroke="#8ccacc" stroke-width="2" stroke-linecap="round" stroke-linejoin="round" stroke-dasharray="0 0"/></g><g transform="translate(821.5, 185) rotate(0, 28.5, 10)" width="57" height="20"><text text-decoration="none" x="0.5" fill="#fffcfc" font-weight="bold" font-size="11pt" font-family="lt_regular"  y="16">paddress</text><text text-decoration="none" x="56.5" fill="#4b4b4b" font-size="10pt" font-family="noto_regular"  y="16"></text></g></g><g id="smvAPRlHhuc"><g transform="translate(770 30)"><ellipse cx="50" cy="25" rx="50" ry="25" fill="rgb(140,202,204)" stroke="#8ccacc" stroke-width="2" stroke-linecap="round" stroke-linejoin="round" stroke-dasharray="0 0"/></g><g transform="translate(810, 45) rotate(0, 10, 10)" width="20" height="20"><text text-decoration="underline" x="0" fill="#fffcfc" font-weight="bold" font-size="11pt" font-family="lt_regular"  y="16">pid</text><text text-decoration="none" x="20" fill="#4b4b4b" font-size="10pt" font-family="noto_regular"  y="16"></text></g></g><g id="TZdQlZC4ZnW"><g transform="translate(1009.9999999999999 10)"><ellipse cx="50" cy="25" rx="50" ry="25" fill="rgb(140,202,204)" stroke="#8ccacc" stroke-width="2" stroke-linecap="round" stroke-linejoin="round" stroke-dasharray="0 0"/></g><g transform="translate(1041.5, 25) rotate(0, 18.5, 10)" width="37" height="20"><text text-decoration="none" x="0" fill="#fffcfc" font-weight="bold" font-size="11pt" font-family="lt_regular"  y="16">ptype</text><text text-decoration="none" x="37" fill="#4b4b4b" font-size="10pt" font-family="noto_regular"  y="16"></text></g></g><g id="pWjA3xRYxwQ"><g transform="translate(1030 90)"><ellipse cx="50" cy="25" rx="50" ry="25" fill="rgb(140,202,204)" stroke="#8ccacc" stroke-width="2" stroke-linecap="round" stroke-linejoin="round" stroke-dasharray="0 0"/></g><g transform="translate(1056.5, 105) rotate(0, 23.5, 10)" width="47" height="20"><text text-decoration="none" x="1" fill="#fffcfc" font-weight="bold" font-size="11pt" font-family="lt_regular"  y="16">pstatus</text><text text-decoration="none" x="46" fill="#4b4b4b" font-size="10pt" font-family="noto_regular"  y="16"></text></g></g><g id="qIhYhWfiYXy"><g transform="translate(1020 160)"><ellipse cx="50" cy="25" rx="50" ry="25" fill="rgb(140,202,204)" stroke="#8ccacc" stroke-width="2" stroke-linecap="round" stroke-linejoin="round" stroke-dasharray="0 0"/></g><g transform="translate(1043.5, 175) rotate(0, 26.5, 10)" width="53" height="20"><text text-decoration="none" x="0" fill="#fffcfc" font-weight="bold" font-size="11pt" font-family="lt_regular"  y="16">proprice</text><text text-decoration="none" x="54" fill="#4b4b4b" font-size="10pt" font-family="noto_regular"  y="16"></text></g></g><g id="Qs5jzuSYGBK"><g transform="translate(350 310)"><path d="M 119.99999999999999,34.99999999999999 L 59.99999999999999,69.99999999999999 L 0,34.99999999999999 L 59.99999999999999,0 L 119.99999999999999,34.99999999999999 L 119.99999999999999,34.99999999999999 Z" fill="rgb(243,157,32)" stroke="#f39d20" stroke-width="2" stroke-linecap="round" stroke-linejoin="round" stroke-dasharray="0 0"/></g><g transform="translate(384, 335) rotate(0, 26, 10)" width="52" height="20"><text text-decoration="none" x="0" fill="#fffcfc" font-weight="bold" font-size="11pt" font-family="lt_regular"  y="16">requires</text><text text-decoration="none" x="52" fill="#4b4b4b" font-size="10pt" font-family="noto_regular"  y="16"></text></g></g><g id="RdMca15fz3I"><g transform="translate(359.99999999999994 460)"><rect x="0" y="0" width="100" height="50" fill="rgb(44,184,185)" stroke="#2cb8b9" stroke-width="2" stroke-linecap="round" stroke-linejoin="round" stroke-dasharray="0 0"/></g><g transform="translate(370.49999999999994, 475) rotate(0, 39.5, 10)" width="79" height="20"><text text-decoration="none" x="0" fill="#fffcfc" font-weight="bold" font-size="11pt" font-family="lt_regular"  y="16">requirement</text><text text-decoration="none" x="79" fill="#4b4b4b" font-size="10pt" font-family="noto_regular"  y="16"></text></g></g><g id="IOHxYqVHTfl"><g transform="translate(540 440)"><ellipse cx="50" cy="25" rx="50" ry="25" fill="rgb(140,202,204)" stroke="#8ccacc" stroke-width="2" stroke-linecap="round" stroke-linejoin="round" stroke-dasharray="0 0"/></g><g transform="translate(577.5, 455) rotate(0, 12.5, 10)" width="25" height="20"><text text-decoration="underline" x="0" fill="#fffcfc" font-weight="bold" font-size="11pt" font-family="lt_regular"  y="16">reid</text><text text-decoration="none" x="25" fill="#4b4b4b" font-size="10pt" font-family="noto_regular"  y="16"></text></g></g><g id="z9CDO2JeGkw"><g transform="translate(230 450)"><ellipse cx="50" cy="25" rx="50" ry="25" fill="rgb(140,202,204)" stroke="#8ccacc" stroke-width="2" stroke-linecap="round" stroke-linejoin="round" stroke-dasharray="0 0"/></g><g transform="translate(261.5, 465) rotate(0, 18.5, 10)" width="37" height="20"><text text-decoration="none" x="0" fill="#fffcfc" font-weight="bold" font-size="11pt" font-family="lt_regular"  y="16">ptype</text><text text-decoration="none" x="37" fill="#4b4b4b" font-size="10pt" font-family="noto_regular"  y="16"></text></g></g><g id="TJ3D0L8izAy"><g transform="translate(230 530)"><ellipse cx="50" cy="25" rx="50" ry="25" fill="rgb(140,202,204)" stroke="#8ccacc" stroke-width="2" stroke-linecap="round" stroke-linejoin="round" stroke-dasharray="0 0"/></g><g transform="translate(263.5, 545) rotate(0, 16.5, 10)" width="33" height="20"><text text-decoration="none" x="0" fill="#fffcfc" font-weight="bold" font-size="11pt" font-family="lt_regular"  y="16">place</text><text text-decoration="none" x="34" fill="#4b4b4b" font-size="10pt" font-family="noto_regular"  y="16"></text></g></g><g id="1runAXjBHX3"><g transform="translate(500 510)"><ellipse cx="50" cy="25" rx="50" ry="25" fill="rgb(140,202,204)" stroke="#8ccacc" stroke-width="2" stroke-linecap="round" stroke-linejoin="round" stroke-dasharray="0 0"/></g><g transform="translate(534, 525) rotate(0, 16, 10)" width="32" height="20"><text text-decoration="none" x="0" fill="#fffcfc" font-weight="bold" font-size="11pt" font-family="lt_regular"  y="16">price</text><text text-decoration="none" x="32" fill="#4b4b4b" font-size="10pt" font-family="noto_regular"  y="16"></text></g></g><g id="i2N5o2EzceD"><g transform="translate(360 540)"><ellipse cx="50" cy="25" rx="50" ry="25" fill="rgb(140,202,204)" stroke="#8ccacc" stroke-width="2" stroke-linecap="round" stroke-linejoin="round" stroke-dasharray="0 0"/></g><g transform="translate(396.5, 555) rotate(0, 13.5, 10)" width="27" height="20"><text text-decoration="none" x="0" fill="#fffcfc" font-weight="bold" font-size="11pt" font-family="lt_regular"  y="16">area</text><text text-decoration="none" x="27" fill="#4b4b4b" font-size="10pt" font-family="noto_regular"  y="16"></text></g></g><g id="q9CJXV70K04"><g transform="translate(460 380)"><ellipse cx="50" cy="25" rx="50" ry="25" fill="rgb(140,202,204)" stroke="#8ccacc" stroke-width="2" stroke-linecap="round" stroke-linejoin="round" stroke-dasharray="0 0"/></g><g transform="translate(491.5, 395) rotate(0, 18.5, 10)" width="37" height="20"><text text-decoration="none" x="0" fill="#fffcfc" font-weight="bold" font-size="11pt" font-family="lt_regular"  y="16">reqby</text><text text-decoration="none" x="37" fill="#4b4b4b" font-size="10pt" font-family="noto_regular"  y="16"></text></g></g><g id="lrvw0WuoRn5"><mask id="01a3d" x="446" y="121" width="178" height="28" maskUnits="userSpaceOnUse"><rect x="446" y="121" width="178" height="28" fill="white" /><rect x="482" y="122.5" width="16" height="25" fill="black" /></mask><g mask="url(#01a3d)"><path d="M 610,135 L 460,135" fill="none" stroke="#9A9A9A" stroke-width="2" stroke-linecap="round" stroke-linejoin="round"/></g><g transform="translate(485, 125.5)" width="10" height="19"><text text-decoration="none" x="0" fill="#fffcfc" font-size="10pt" font-family="lt_regular"  y="15">N</text><text text-decoration="none" x="10" fill="#4b4b4b" font-size="10pt" font-family="noto_regular"  y="15"></text></g></g><g id="6ufo5tfUA9G"><mask id="ea8b3" x="716" y="121" width="178" height="28" maskUnits="userSpaceOnUse"><rect x="716" y="121" width="178" height="28" fill="white" /><rect x="840.5" y="122.5" width="19" height="25" fill="black" /></mask><g mask="url(#ea8b3)"><path d="M 730,135 L 880,135" fill="none" stroke="#9A9A9A" stroke-width="2" stroke-linecap="round" stroke-linejoin="round"/></g><g transform="translate(843.5, 125.5)" width="13" height="19"><text text-decoration="none" x="0.5" fill="#fffcfc" font-size="10pt" font-family="lt_regular"  y="15">M</text><text text-decoration="none" x="12.5" fill="#4b4b4b" font-size="10pt" font-family="noto_regular"  y="15"></text></g></g><g id="mjYgyj1V9H1"><g><path d="M 930,110 L 940,60" fill="none" stroke="#9A9A9A" stroke-width="2" stroke-linecap="round" stroke-linejoin="round"/></g></g><g id="cCkgQtSlNLm"><g><path d="M 930,110 L 840,78" fill="none" stroke="#9A9A9A" stroke-width="2" stroke-linecap="round" stroke-linejoin="round"/></g></g><g id="V0Zk8bLMiZb"><g><path d="M 930,110 L 1020,50" fill="none" stroke="#9A9A9A" stroke-width="2" stroke-linecap="round" stroke-linejoin="round"/></g></g><g id="wrerFHOeRQa"><g><path d="M 980,135 L 1030,115" fill="none" stroke="#9A9A9A" stroke-width="2" stroke-linecap="round" stroke-linejoin="round"/></g></g><g id="5qam5RPR6GP"><g><path d="M 930,160 L 890,180" fill="none" stroke="#9A9A9A" stroke-width="2" stroke-linecap="round" stroke-linejoin="round"/></g></g><g id="lcZbJxQCN3G"><g><path d="M 930,160 L 1030,170" fill="none" stroke="#9A9A9A" stroke-width="2" stroke-linecap="round" stroke-linejoin="round"/></g></g><g id="qFdt6R5RS9C"><g><path d="M 410,110 L 400,68" fill="none" stroke="#9A9A9A" stroke-width="2" stroke-linecap="round" stroke-linejoin="round"/></g></g><g id="6pHRyXccLYy"><g><path d="M 410,110 L 480,95" fill="none" stroke="#9A9A9A" stroke-width="2" stroke-linecap="round" stroke-linejoin="round"/></g></g><g id="WIAJw4XjEE6"><g><path d="M 410,110 L 350,80" fill="none" stroke="#9A9A9A" stroke-width="2" stroke-linecap="round" stroke-linejoin="round"/></g></g><g id="bv9VcyQacVL"><g><path d="M 360,135 L 330,145" fill="none" stroke="#9A9A9A" stroke-width="2" stroke-linecap="round" stroke-linejoin="round"/></g></g><g id="duvg6L0vTUO"><g><path d="M 360,135 L 330,202" fill="none" stroke="#9A9A9A" stroke-width="2" stroke-linecap="round" stroke-linejoin="round"/></g></g><g id="WKSY1BNuSQP"><g><path d="M 410,160 L 480,192" fill="none" stroke="#9A9A9A" stroke-width="2" stroke-linecap="round" stroke-linejoin="round"/></g></g><g id="kPw5MXzDWDO"><mask id="52860" x="396" y="146" width="28" height="178" maskUnits="userSpaceOnUse"><rect x="396" y="146" width="28" height="178" fill="white" /><rect x="402.9999999999999" y="177.5" width="14" height="25" fill="black" /></mask><g mask="url(#52860)"><path d="M 410,160 L 409.99999999999983,225 Q 409.99999999999983,225.00000000000023 410,235 Q 410,245 410,245 L 410,310" fill="none" stroke="#9A9A9A" stroke-width="2" stroke-linecap="round" stroke-linejoin="round"/></g><g transform="translate(405.9999999999999, 180.5)" width="8" height="19"><text text-decoration="none" x="0" fill="#fffcfc" font-size="10pt" font-family="lt_regular"  y="15">1</text><text text-decoration="none" x="8" fill="#4b4b4b" font-size="10pt" font-family="noto_regular"  y="15"></text></g></g><g id="c6ZmcwgYgA0"><mask id="1c039" x="396" y="366" width="28" height="108" maskUnits="userSpaceOnUse"><rect x="396" y="366" width="28" height="108" fill="white" /><rect x="402" y="417.5" width="16" height="25" fill="black" /></mask><g mask="url(#1c039)"><path d="M 410,380 L 410,460" fill="none" stroke="#9A9A9A" stroke-width="2" stroke-linecap="round" stroke-linejoin="round"/></g><g transform="translate(405, 420.5)" width="10" height="19"><text text-decoration="none" x="0" fill="#fffcfc" font-size="10pt" font-family="lt_regular"  y="15">N</text><text text-decoration="none" x="10" fill="#4b4b4b" font-size="10pt" font-family="noto_regular"  y="15"></text></g></g><g id="kFc8mzprSXh"><g><path d="M 360,485 L 330,475" fill="none" stroke="#9A9A9A" stroke-width="2" stroke-linecap="round" stroke-linejoin="round"/></g></g><g id="AsOHlVmlTO2"><g><path d="M 360,485 L 320,540" fill="none" stroke="#9A9A9A" stroke-width="2" stroke-linecap="round" stroke-linejoin="round"/></g></g><g id="Gg2D1bKl70a"><g><path d="M 460,485 L 470,420" fill="none" stroke="#9A9A9A" stroke-width="2" stroke-linecap="round" stroke-linejoin="round"/></g></g><g id="mOnupU87rjm"><g><path d="M 460,485 L 540,465" fill="none" stroke="#9A9A9A" stroke-width="2" stroke-linecap="round" stroke-linejoin="round"/></g></g><g id="Vhf5GqFtDz8"><g><path d="M 460,485 L 510,520" fill="none" stroke="#9A9A9A" stroke-width="2" stroke-linecap="round" stroke-linejoin="round"/></g></g><g id="FxSJ2GDGW1P"><g><path d="M 410,510 L 410,540" fill="none" stroke="#9A9A9A" stroke-width="2" stroke-linecap="round" stroke-linejoin="round"/></g></g><g id="4mZVYFPpOeK"><g transform="translate(810 320)"><path d="M 120,35 L 60,70 L 0,35 L 60,0 L 120,35 L 120,35 Z" fill="rgb(243,157,32)" stroke="#f39d20" stroke-width="2" stroke-linecap="round" stroke-linejoin="round" stroke-dasharray="0 0"/></g><g transform="translate(849, 345) rotate(0, 21, 10)" width="42" height="20"><text text-decoration="none" x="0" fill="#fffcfc" font-weight="bold" font-size="11pt" font-family="lt_regular"  y="16">rented</text><text text-decoration="none" x="42" fill="#4b4b4b" font-size="10pt" font-family="noto_regular"  y="16"></text></g></g><g id="fDyESWTppXI"><g transform="translate(759.9999999999998 439.9999999999999)"><rect x="0" y="0" width="100" height="50" fill="rgb(44,184,185)" stroke="#2cb8b9" stroke-width="2" stroke-linecap="round" stroke-linejoin="round" stroke-dasharray="0 0"/></g><g transform="translate(796.9999999999998, 454.9999999999999) rotate(0, 13, 10)" width="26" height="20"><text text-decoration="none" x="0" fill="#fffcfc" font-weight="bold" font-size="11pt" font-family="lt_regular"  y="16">rent</text><text text-decoration="none" x="26" fill="#4b4b4b" font-size="10pt" font-family="noto_regular"  y="16"></text></g></g><g id="fybVc7SxaJs"><mask id="ff431" x="916" y="146" width="28" height="223" maskUnits="userSpaceOnUse"><rect x="916" y="146" width="28" height="223" fill="white" /><rect x="922" y="177.5" width="16" height="25" fill="black" /></mask><g mask="url(#ff431)"><path d="M 930,355 L 930,160" fill="none" stroke="#9A9A9A" stroke-width="2" stroke-linecap="round" stroke-linejoin="round"/></g><g transform="translate(925, 180.5)" width="10" height="19"><text text-decoration="none" x="0" fill="#fffcfc" font-size="10pt" font-family="lt_regular"  y="15">N</text><text text-decoration="none" x="10" fill="#4b4b4b" font-size="10pt" font-family="noto_regular"  y="15"></text></g></g><g id="6ACFx3xMxmH"><mask id="c9b4f" x="796" y="341" width="28" height="113" maskUnits="userSpaceOnUse"><rect x="796" y="341" width="28" height="113" fill="white" /><rect x="803" y="397.5" width="14" height="25" fill="black" /></mask><g mask="url(#c9b4f)"><path d="M 810,440 L 810,355" fill="none" stroke="#9A9A9A" stroke-width="2" stroke-linecap="round" stroke-linejoin="round"/></g><g transform="translate(806, 400.5)" width="8" height="19"><text text-decoration="none" x="0" fill="#fffcfc" font-size="10pt" font-family="lt_regular"  y="15">1</text><text text-decoration="none" x="8" fill="#4b4b4b" font-size="10pt" font-family="noto_regular"  y="15"></text></g></g><g id="N7TXRRqMgYN"><g transform="translate(650 400)"><ellipse cx="50" cy="25" rx="50" ry="25" fill="rgb(140,202,204)" stroke="#8ccacc" stroke-width="2" stroke-linecap="round" stroke-linejoin="round" stroke-dasharray="0 0"/></g><g transform="translate(683.5, 415) rotate(0, 16.5, 10)" width="33" height="20"><text text-decoration="underline" x="0" fill="#fffcfc" font-weight="bold" font-size="11pt" font-family="lt_regular"  y="16">proid</text><text text-decoration="none" x="34" fill="#4b4b4b" font-size="10pt" font-family="noto_regular"  y="16"></text></g></g><g id="jZeBHE8fhwm"><g transform="translate(690 330)"><ellipse cx="50" cy="25" rx="50" ry="25" fill="rgb(140,202,204)" stroke="#8ccacc" stroke-width="2" stroke-linecap="round" stroke-linejoin="round" stroke-dasharray="0 0"/></g><g transform="translate(710.5, 345) rotate(0, 29.5, 10)" width="59" height="20"><text text-decoration="none" x="8.5" fill="#fffcfc" font-weight="bold" font-size="11pt" font-family="lt_regular"  y="16">rented&#160;</text><text text-decoration="none" x="22.5" fill="#fffcfc" font-weight="bold" font-size="11pt" font-family="lt_regular"  y="36">to</text><text text-decoration="none" x="36.5" fill="#4b4b4b" font-size="10pt" font-family="noto_regular"  y="36"></text></g></g><g id="wgEp48gB0aw"><g transform="translate(660 490)"><ellipse cx="50" cy="25" rx="50" ry="25" fill="rgb(140,202,204)" stroke="#8ccacc" stroke-width="2" stroke-linecap="round" stroke-linejoin="round" stroke-dasharray="0 0"/></g><g transform="translate(697, 505) rotate(0, 13, 10)" width="26" height="20"><text text-decoration="none" x="0" fill="#fffcfc" font-weight="bold" font-size="11pt" font-family="lt_regular"  y="16">rent</text><text text-decoration="none" x="26" fill="#4b4b4b" font-size="10pt" font-family="noto_regular"  y="16"></text></g></g><g id="M3NAd9vI0gc"><g transform="translate(770 530)"><ellipse cx="50" cy="25" rx="50" ry="25" fill="rgb(140,202,204)" stroke="#8ccacc" stroke-width="2" stroke-linecap="round" stroke-linejoin="round" stroke-dasharray="0 0"/></g><g transform="translate(793.5, 545) rotate(0, 26.5, 10)" width="53" height="20"><text text-decoration="none" x="0" fill="#fffcfc" font-weight="bold" font-size="11pt" font-family="lt_regular"  y="16">advance</text><text text-decoration="none" x="53" fill="#4b4b4b" font-size="10pt" font-family="noto_regular"  y="16"></text></g></g><g id="quf8tksofG2"><g><path d="M 810,440 L 740,380" fill="none" stroke="#9A9A9A" stroke-width="2" stroke-linecap="round" stroke-linejoin="round"/></g></g><g id="pCtaAv3OBkL"><g><path d="M 810,490 L 800,532" fill="none" stroke="#9A9A9A" stroke-width="2" stroke-linecap="round" stroke-linejoin="round"/></g></g><g id="SAOvYXNpfLn"><g><path d="M 760,465 L 720,448" fill="none" stroke="#9A9A9A" stroke-width="2" stroke-linecap="round" stroke-linejoin="round"/></g></g><g id="GLekpC0n96H"><g><path d="M 760,465 L 710,490" fill="none" stroke="#9A9A9A" stroke-width="2" stroke-linecap="round" stroke-linejoin="round"/></g></g><g id="oGPFwKplAEe"><g transform="translate(1050 330)"><path d="M 120,35 L 60,70 L 0,35 L 60,0 L 120,35 L 120,35 Z" fill="rgb(243,157,32)" stroke="#f39d20" stroke-width="2" stroke-linecap="round" stroke-linejoin="round" stroke-dasharray="0 0"/></g><g transform="translate(1092, 355) rotate(0, 18, 10)" width="36" height="20"><text text-decoration="none" x="0" fill="#fffcfc" font-weight="bold" font-size="11pt" font-family="lt_regular"  y="16">agent</text><text text-decoration="none" x="36" fill="#4b4b4b" font-size="10pt" font-family="noto_regular"  y="16"></text></g></g><g id="aLVQzhoUgy3"><mask id="17a20" x="916" y="146" width="208" height="198" maskUnits="userSpaceOnUse"><rect x="916" y="146" width="208" height="198" fill="white" />undefined<rect x="968.2185970636216" y="191.1508972267537" width="16" height="25" fill="black" /></mask><g mask="url(#17a20)"><path d="M 1110,330 L 930,160" fill="none" stroke="#9A9A9A" stroke-width="2" stroke-linecap="round" stroke-linejoin="round"/></g>undefined<g transform="translate(971.2185970636216, 194.1508972267537)" width="10" height="19"><text text-decoration="none" x="0" fill="#fffcfc" font-size="10pt" font-family="lt_regular"  y="15">N</text><text text-decoration="none" x="10" fill="#4b4b4b" font-size="10pt" font-family="noto_regular"  y="15"></text></g></g><g id="5xVQHrj3YuC"><g transform="translate(1060 490)"><rect x="0" y="0" width="100" height="50" fill="rgb(44,184,185)" stroke="#2cb8b9" stroke-width="2" stroke-linecap="round" stroke-linejoin="round" stroke-dasharray="0 0"/></g><g transform="translate(1071, 505) rotate(0, 39, 10)" width="78" height="20"><text text-decoration="none" x="0.5" fill="#fffcfc" font-weight="bold" font-size="11pt" font-family="lt_regular"  y="16">transactions</text><text text-decoration="none" x="77.5" fill="#4b4b4b" font-size="10pt" font-family="noto_regular"  y="16"></text></g></g><g id="jfgHpmIKjZe"><mask id="0a5b5" x="1096" y="386" width="28" height="118" maskUnits="userSpaceOnUse"><rect x="1096" y="386" width="28" height="118" fill="white" /><rect x="1100.5" y="447.5" width="19" height="25" fill="black" /></mask><g mask="url(#0a5b5)"><path d="M 1110,400 L 1110,490" fill="none" stroke="#9A9A9A" stroke-width="2" stroke-linecap="round" stroke-linejoin="round"/></g><g transform="translate(1103.5, 450.5)" width="13" height="19"><text text-decoration="none" x="0.5" fill="#fffcfc" font-size="10pt" font-family="lt_regular"  y="15">M</text><text text-decoration="none" x="12.5" fill="#4b4b4b" font-size="10pt" font-family="noto_regular"  y="15"></text></g></g><g id="iYXVHF2dUBa"><g transform="translate(960 420)"><ellipse cx="50" cy="25" rx="50" ry="25" fill="rgb(140,202,204)" stroke="#8ccacc" stroke-width="2" stroke-linecap="round" stroke-linejoin="round" stroke-dasharray="0 0"/></g><g transform="translate(1001.5, 435) rotate(0, 8.5, 10)" width="17" height="20"><text text-decoration="underline" x="0" fill="#fffcfc" font-weight="bold" font-size="11pt" font-family="lt_regular"  y="16">tid</text><text text-decoration="none" x="17" fill="#4b4b4b" font-size="10pt" font-family="noto_regular"  y="16"></text></g></g><g id="TABL4oIB5jA"><g transform="translate(920 480)"><ellipse cx="50" cy="25" rx="50" ry="25" fill="rgb(140,202,204)" stroke="#8ccacc" stroke-width="2" stroke-linecap="round" stroke-linejoin="round" stroke-dasharray="0 0"/></g><g transform="translate(957.5, 495) rotate(0, 12.5, 10)" width="25" height="20"><text text-decoration="underline" x="0" fill="#fffcfc" font-weight="bold" font-size="11pt" font-family="lt_regular"  y="16">prid</text><text text-decoration="none" x="25" fill="#4b4b4b" font-size="10pt" font-family="noto_regular"  y="16"></text></g></g><g id="XmQbd0mwZAK"><g transform="translate(970 560)"><ellipse cx="50" cy="25" rx="50" ry="25" fill="rgb(140,202,204)" stroke="#8ccacc" stroke-width="2" stroke-linecap="round" stroke-linejoin="round" stroke-dasharray="0 0"/></g><g transform="translate(1005.5, 575) rotate(0, 14.5, 10)" width="29" height="20"><text text-decoration="none" x="0" fill="#fffcfc" font-weight="bold" font-size="11pt" font-family="lt_regular"  y="16">type</text><text text-decoration="none" x="29" fill="#4b4b4b" font-size="10pt" font-family="noto_regular"  y="16"></text></g></g><g id="tZX7wBK9Qdg"><g transform="translate(1160 410)"><ellipse cx="50" cy="25" rx="50" ry="25" fill="rgb(140,202,204)" stroke="#8ccacc" stroke-width="2" stroke-linecap="round" stroke-linejoin="round" stroke-dasharray="0 0"/></g><g transform="translate(1185.5, 425) rotate(0, 24.5, 10)" width="49" height="20"><text text-decoration="none" x="0" fill="#fffcfc" font-weight="bold" font-size="11pt" font-family="lt_regular"  y="16">amount</text><text text-decoration="none" x="49" fill="#4b4b4b" font-size="10pt" font-family="noto_regular"  y="16"></text></g></g><g id="BWKQJkbkAJl"><g transform="translate(1160 560)"><ellipse cx="50" cy="25" rx="50" ry="25" fill="rgb(140,202,204)" stroke="#8ccacc" stroke-width="2" stroke-linecap="round" stroke-linejoin="round" stroke-dasharray="0 0"/></g><g transform="translate(1194, 575) rotate(0, 16, 10)" width="32" height="20"><text text-decoration="none" x="0" fill="#fffcfc" font-weight="bold" font-size="11pt" font-family="lt_regular"  y="16">price</text><text text-decoration="none" x="32" fill="#4b4b4b" font-size="10pt" font-family="noto_regular"  y="16"></text></g></g><g id="CaUYLfDLoDP"><g><path d="M 1110,490 L 1050,460" fill="none" stroke="#9A9A9A" stroke-width="2" stroke-linecap="round" stroke-linejoin="round"/></g></g><g id="H5qzJgORAMR"><g><path d="M 1110,490 L 1170,450" fill="none" stroke="#9A9A9A" stroke-width="2" stroke-linecap="round" stroke-linejoin="round"/></g></g><g id="O3Xqf7sOI3N"><g><path d="M 1060,515 L 1018,507" fill="none" stroke="#9A9A9A" stroke-width="2" stroke-linecap="round" stroke-linejoin="round"/></g></g><g id="x1WEkyjTxkh"><g><path d="M 1110,540 L 1060,570" fill="none" stroke="#9A9A9A" stroke-width="2" stroke-linecap="round" stroke-linejoin="round"/></g></g><g id="OJPgTmIUtg5"><g><path d="M 1190,562 L 1150,551 L 1110,540" fill="none" stroke="#9A9A9A" stroke-width="2" stroke-linecap="round" stroke-linejoin="round"/></g></g><g id="eN5FY78fbKw"><g transform="translate(1130 250)"><path d="M 120,35 L 60,70 L 0,35 L 60,0 L 120,35 L 120,35 Z" fill="rgb(243,157,32)" stroke="#f39d20" stroke-width="2" stroke-linecap="round" stroke-linejoin="round" stroke-dasharray="0 0"/></g><g transform="translate(1177, 275) rotate(0, 13, 10)" width="26" height="20"><text text-decoration="none" x="0" fill="#fffcfc" font-weight="bold" font-size="11pt" font-family="lt_regular"  y="16">sold</text><text text-decoration="none" x="27" fill="#4b4b4b" font-size="10pt" font-family="noto_regular"  y="16"></text></g></g><g id="HXMhFvnFtmX"><mask id="c1627" x="916" y="146" width="228" height="153" maskUnits="userSpaceOnUse"><rect x="916" y="146" width="228" height="153" fill="white" />undefined<rect x="993.7303370786517" y="192.3314606741573" width="16" height="25" fill="black" /></mask><g mask="url(#c1627)"><path d="M 1130,285 L 930,160" fill="none" stroke="#9A9A9A" stroke-width="2" stroke-linecap="round" stroke-linejoin="round"/></g>undefined<g transform="translate(996.7303370786517, 195.3314606741573)" width="10" height="19"><text text-decoration="none" x="0" fill="#fffcfc" font-size="10pt" font-family="lt_regular"  y="15">N</text><text text-decoration="none" x="10" fill="#4b4b4b" font-size="10pt" font-family="noto_regular"  y="15"></text></g></g><g id="IRQSRERF6dc"><g transform="translate(1290 190)"><rect x="0" y="0" width="100" height="50" fill="rgb(44,184,185)" stroke="#2cb8b9" stroke-width="2" stroke-linecap="round" stroke-linejoin="round" stroke-dasharray="0 0"/></g><g transform="translate(1324.5, 205) rotate(0, 15.5, 10)" width="31" height="20"><text text-decoration="none" x="0" fill="#fffcfc" font-weight="bold" font-size="11pt" font-family="lt_regular"  y="16">sales</text><text text-decoration="none" x="31" fill="#4b4b4b" font-size="10pt" font-family="noto_regular"  y="16"></text></g></g><g id="4Gjm4VC1wb0"><mask id="a9641" x="1236" y="226" width="118" height="73" maskUnits="userSpaceOnUse"><rect x="1236" y="226" width="118" height="73" fill="white" /><rect x="1306.1671842700025" y="240.91640786499875" width="14" height="25" fill="black" /></mask><g mask="url(#a9641)"><path d="M 1340,240 L 1250,285" fill="none" stroke="#9A9A9A" stroke-width="2" stroke-linecap="round" stroke-linejoin="round"/></g><g transform="translate(1309.1671842700025, 243.91640786499875)" width="8" height="19"><text text-decoration="none" x="0" fill="#fffcfc" font-size="10pt" font-family="lt_regular"  y="15">1</text><text text-decoration="none" x="8" fill="#4b4b4b" font-size="10pt" font-family="noto_regular"  y="15"></text></g></g><g id="8BH3jC7yHTu"><g transform="translate(1220 110)"><ellipse cx="50" cy="25" rx="50" ry="25" fill="rgb(140,202,204)" stroke="#8ccacc" stroke-width="2" stroke-linecap="round" stroke-linejoin="round" stroke-dasharray="0 0"/></g><g transform="translate(1249.5, 125) rotate(0, 20.5, 10)" width="41" height="20"><text text-decoration="underline" x="0" fill="#fffcfc" font-weight="bold" font-size="11pt" font-family="lt_regular"  y="16">propid</text><text text-decoration="none" x="42" fill="#4b4b4b" font-size="10pt" font-family="noto_regular"  y="16"></text></g></g><g id="yuZ9nvumGdX"><g transform="translate(1360 119.99999999999994)"><ellipse cx="50" cy="25" rx="50" ry="25" fill="rgb(140,202,204)" stroke="#8ccacc" stroke-width="2" stroke-linecap="round" stroke-linejoin="round" stroke-dasharray="0 0"/></g><g transform="translate(1388.5, 134.99999999999994) rotate(0, 21.5, 10)" width="43" height="20"><text text-decoration="none" x="8" fill="#fffcfc" font-weight="bold" font-size="11pt" font-family="lt_regular"  y="16">sold&#160;</text><text text-decoration="none" x="14.5" fill="#fffcfc" font-weight="bold" font-size="11pt" font-family="lt_regular"  y="36">to</text><text text-decoration="none" x="28.5" fill="#4b4b4b" font-size="10pt" font-family="noto_regular"  y="36"></text></g></g><g id="L955dh1Ukkc"><g transform="translate(1350 260)"><ellipse cx="50" cy="25" rx="50" ry="25" fill="rgb(140,202,204)" stroke="#8ccacc" stroke-width="2" stroke-linecap="round" stroke-linejoin="round" stroke-dasharray="0 0"/></g><g transform="translate(1384, 275) rotate(0, 16, 10)" width="32" height="20"><text text-decoration="none" x="0" fill="#fffcfc" font-weight="bold" font-size="11pt" font-family="lt_regular"  y="16">price</text><text text-decoration="none" x="32" fill="#4b4b4b" font-size="10pt" font-family="noto_regular"  y="16"></text></g></g><g id="ALPC4b4exYR"><g><path d="M 1340,190 L 1315,174 L 1290,158" fill="none" stroke="#9A9A9A" stroke-width="2" stroke-linecap="round" stroke-linejoin="round"/></g></g><g id="UxuqVftfmQP"><g><path d="M 1340,190 L 1370,160" fill="none" stroke="#9A9A9A" stroke-width="2" stroke-linecap="round" stroke-linejoin="round"/></g></g><g id="sdEd7gGn3Uv"><g><path d="M 1340,240 L 1360,251 L 1380,262" fill="none" stroke="#9A9A9A" stroke-width="2" stroke-linecap="round" stroke-linejoin="round"/></g></g><g id="y7HVnAvCwCi"><g transform="translate(890 10)"><ellipse cx="50" cy="25" rx="50" ry="25" fill="rgb(140,202,204)" stroke="#8ccacc" stroke-width="2" stroke-linecap="round" stroke-linejoin="round" stroke-dasharray="0 0"/></g><g transform="translate(920.5, 25) rotate(0, 19.5, 10)" width="39" height="20"><text text-decoration="underline" x="0.5" fill="#fffcfc" font-weight="bold" font-size="11pt" font-family="lt_regular"  y="16">custid</text><text text-decoration="none" x="38.5" fill="#4b4b4b" font-size="10pt" font-family="noto_regular"  y="16"></text></g></g></svg>